<svg width="1023" height="1112" viewBox="0 0 1023 1112" fill="none" xmlns="http://www.w3.org/2000/svg">
<path opacity="0.5" d="M318.343 37.6942C198.405 138.217 179.819 328.298 98.5892 468.527C70.3124 517.322 33.7749 560.992 14.7119 615.123C-29.0536 739.026 31.1802 879.572 111.801 977.981C150.245 1024.93 195.149 1067.94 249.478 1087.72C291.258 1102.94 336.056 1103.57 380.033 1103.97L1150.5 1111.9C1236.52 1112.77 1332.1 1109.62 1393.95 1043.21C1436.57 997.478 1453.89 930.692 1468.58 866.944C1486.64 788.613 1503 703.546 1474.91 628.94C1442.82 543.582 1361.67 495.21 1311.26 421.555C1229.45 302.223 1231.33 121.731 1127.14 26.4664C1078.51 -17.9959 1014.33 -35.4321 951.792 -44.1502C833.892 -60.6089 722.215 -29.5408 606.433 -33.8734C507.464 -37.572 400.447 -31.1259 318.343 37.6942Z" fill="#E7ECFF"/>
<path opacity="0.24" d="M559.786 933.613C513.337 938.283 465.463 943.419 424.589 966.264C419.119 969.328 413.564 972.942 410.546 978.458C404.488 989.553 411.363 1004.18 422.032 1010.86C432.701 1017.53 445.865 1018.29 458.42 1018.84C681.987 1028.59 905.889 1024.76 1129.65 1020.96C1194.62 1019.86 1260.63 1018.59 1322.9 999.718C1334.1 996.337 1346.4 991.265 1350.61 980.212C1356.13 965.757 1343.55 949.737 1328.88 945.236C1314.2 940.735 1298.55 944.095 1283.37 946.06C1230.68 952.886 1177.52 942.446 1125.05 934.099C1022.35 917.784 915.783 904.512 811.755 902.039C776.289 901.215 746.001 913.515 711.29 918.376C661.173 925.434 610.176 928.541 559.786 933.613Z" fill="#505F98"/>
<path d="M377.077 500.326L492.907 264.408L561.893 298.19L446.063 534.108L377.077 500.326Z" fill="white"/>
<path d="M403.922 493.055L418.036 464.22L464.5 486.903L450.386 515.738L403.922 493.055Z" fill="#505F98"/>
<path d="M403.922 493.055L418.036 464.22L464.5 486.903L450.386 515.738L403.922 493.055Z" fill="url(#paint0_linear_108_1327)"/>
<path d="M418.038 464.445L432.151 435.61L478.615 458.293L464.502 487.128L418.038 464.445Z" fill="#505F98"/>
<path d="M418.038 464.445L432.151 435.61L478.615 458.293L464.502 487.128L418.038 464.445Z" fill="url(#paint1_linear_108_1327)"/>
<path d="M432.134 435.826L446.248 406.991L492.712 429.674L478.599 458.509L432.134 435.826Z" fill="#505F98"/>
<path d="M432.134 435.826L446.248 406.991L492.712 429.674L478.599 458.509L432.134 435.826Z" fill="url(#paint2_linear_108_1327)"/>
<path d="M446.271 407.237L460.384 378.402L506.848 401.085L492.735 429.92L446.271 407.237Z" fill="#505F98"/>
<path d="M446.271 407.237L460.384 378.402L506.848 401.085L492.735 429.92L446.271 407.237Z" fill="url(#paint3_linear_108_1327)"/>
<path d="M460.377 378.599L474.49 349.764L520.954 372.447L506.841 401.282L460.377 378.599Z" fill="#505F98"/>
<path d="M474.492 350.01L488.606 321.175L535.07 343.858L520.956 372.693L474.492 350.01Z" fill="#505F98"/>
<path d="M488.589 321.391L502.702 292.556L549.166 315.239L535.053 344.074L488.589 321.391Z" fill="#505F98"/>
<path d="M472.904 353.598L487.018 324.763L533.482 347.446L519.368 376.281L472.904 353.598Z" fill="url(#paint4_linear_108_1327)"/>
<path d="M487.029 324.97L501.142 296.135L547.607 318.817L533.493 347.652L487.029 324.97Z" fill="url(#paint5_linear_108_1327)"/>
<rect x="787.545" y="818" width="98.0679" height="82" fill="#505F98"/>
<rect x="787.545" y="818" width="98.0679" height="82" fill="url(#paint6_linear_108_1327)"/>
<rect x="579.401" y="476" width="518.359" height="355" rx="9.37" fill="#505F98"/>
<path opacity="0.65" d="M1080.75 505.438V799.562C1080.77 804.443 1078.84 809.129 1075.4 812.588C1071.96 816.047 1067.29 817.994 1062.41 818H610.748C605.873 817.989 601.203 816.04 597.764 812.582C594.325 809.125 592.399 804.441 592.41 799.562V505.438C592.399 500.559 594.325 495.875 597.764 492.418C601.203 488.96 605.873 487.011 610.748 487H1062.41C1067.29 487.006 1071.96 488.953 1075.4 492.412C1078.84 495.871 1080.77 500.557 1080.75 505.438Z" fill="url(#paint7_linear_108_1327)"/>
<rect x="742.514" y="890" width="206.143" height="21" fill="#505F98"/>
<rect x="787.545" y="878" width="98.0679" height="12" fill="url(#paint8_linear_108_1327)"/>
<path fill-rule="evenodd" clip-rule="evenodd" d="M942.653 304.241V324.715L929.944 324.819C928.707 334.346 925.084 343.41 919.405 351.181L930.26 362.351L915.38 376.6L904.694 365.578C898.105 370.062 890.67 373.17 882.838 374.714V388H862.267V375.029C853.483 373.76 845.11 370.497 837.797 365.494L828.861 374.316L814.297 359.647L823.17 350.993C817.584 343.219 814.021 334.191 812.801 324.715H798.553V304.241H813.307C815.136 296.093 818.732 288.441 823.845 281.819L815.604 273.332L830.484 259.082L838.914 267.82C845.885 263.214 853.809 260.228 862.099 259.082V245H882.669V259.396C891.038 261.055 898.947 264.493 905.853 269.476L916.391 259.166L930.871 273.709L920.333 284.187C924.464 290.267 927.397 297.073 928.974 304.241H942.653ZM836.512 317.15C836.488 336.211 852.011 351.682 871.182 351.705C880.394 351.733 889.238 348.113 895.759 341.644C902.281 335.176 905.943 326.392 905.938 317.233C905.961 298.172 890.438 282.701 871.267 282.678C852.095 282.655 836.535 298.088 836.512 317.15Z" fill="#505F98"/>
<path fill-rule="evenodd" clip-rule="evenodd" d="M1018.71 338.354L1017.79 350.396L1010.27 349.938C1009.15 355.475 1006.64 360.641 1002.99 364.958L1008.86 372.021L999.507 379.729L993.747 372.792C989.693 375.13 985.206 376.625 980.558 377.188L979.953 385L967.912 384.104L968.496 376.479C963.411 375.344 958.656 373.056 954.598 369.792L948.964 374.583L941.096 365.396L946.668 360.688C943.74 355.876 942.055 350.414 941.764 344.792L933.646 344.167L934.544 332.146L943.162 332.792C944.586 328.085 947.014 323.743 950.278 320.062L945.834 314.708L955.182 307L959.711 312.5C963.982 310.095 968.738 308.672 973.63 308.333L974.256 300L986.297 300.896L985.65 309.375C990.457 310.714 994.915 313.081 998.714 316.312L1005.33 310.708L1013.18 319.896L1006.5 325.583C1008.66 329.339 1010.08 333.477 1010.67 337.771L1018.71 338.354ZM956.008 341.243C955.153 352.436 963.546 362.203 974.757 363.062C980.151 363.487 985.492 361.747 989.597 358.228C993.703 354.708 996.232 349.7 996.627 344.312C997.469 333.119 989.066 323.361 977.854 322.514C966.642 321.666 956.863 330.05 956.008 341.243Z" fill="#505F98"/>
<path d="M1080.75 505.513V512H592.41V505.513C592.399 500.614 594.325 495.912 597.764 492.44C601.203 488.968 605.874 487.011 610.749 487H1062.41C1067.29 487.006 1071.96 488.961 1075.4 492.434C1078.84 495.907 1080.77 500.613 1080.75 505.513Z" fill="url(#paint9_linear_108_1327)"/>
<rect x="602.417" y="544" width="47.0326" height="227" fill="url(#paint10_linear_108_1327)"/>
<rect x="720.499" y="560" width="221.153" height="209" fill="url(#paint11_linear_108_1327)"/>
<rect x="771.534" y="658" width="7.00485" height="9" fill="url(#paint12_linear_108_1327)"/>
<rect x="771.534" y="616" width="7.00485" height="9" fill="url(#paint13_linear_108_1327)"/>
<rect x="676.469" y="658" width="7.00485" height="9" fill="url(#paint14_linear_108_1327)"/>
<rect x="676.469" y="616" width="7.00485" height="9" fill="url(#paint15_linear_108_1327)"/>
<rect x="771.534" y="571" width="7.00485" height="9" fill="url(#paint16_linear_108_1327)"/>
<rect x="677.469" y="571" width="7.00485" height="9" fill="url(#paint17_linear_108_1327)"/>
<rect x="725.502" y="571" width="7.00485" height="9" fill="url(#paint18_linear_108_1327)"/>
<rect x="725.502" y="658" width="7.00485" height="9" fill="url(#paint19_linear_108_1327)"/>
<path fill-rule="evenodd" clip-rule="evenodd" d="M689.478 656H767.532V583H689.478V656ZM759.67 648.282H697.34V590.656H759.67V648.282Z" fill="#505F98"/>
<path fill-rule="evenodd" clip-rule="evenodd" d="M689.478 656H767.532V583H689.478V656ZM759.67 648.282H697.34V590.656H759.67V648.282Z" fill="url(#paint20_linear_108_1327)"/>
<rect x="973.674" y="524" width="100.069" height="100" fill="url(#paint21_linear_108_1327)"/>
<rect x="973.674" y="634" width="100.069" height="100" fill="url(#paint22_linear_108_1327)"/>
<rect opacity="0.65" x="602.417" y="543" width="47.0326" height="13" fill="url(#paint23_linear_108_1327)"/>
<path d="M399.381 474.827L604.51 310.293L652.622 370.118L447.494 534.652L399.381 474.827Z" fill="white"/>
<path d="M428.105 479.455L453.172 459.235L485.755 499.522L460.687 519.742L428.105 479.455Z" fill="#505F98"/>
<path d="M428.105 479.455L453.172 459.235L485.755 499.522L460.687 519.742L428.105 479.455Z" fill="url(#paint24_linear_108_1327)"/>
<path d="M451.723 459.689L476.755 439.56L509.19 479.79L484.158 499.919L451.723 459.689Z" fill="#505F98"/>
<path d="M451.723 459.689L476.755 439.56L509.19 479.79L484.158 499.919L451.723 459.689Z" fill="url(#paint25_linear_108_1327)"/>
<path d="M476.667 439.761L501.699 419.633L534.134 459.863L509.101 479.991L476.667 439.761Z" fill="#505F98"/>
<path d="M476.667 439.761L501.699 419.633L534.134 459.863L509.101 479.991L476.667 439.761Z" fill="url(#paint26_linear_108_1327)"/>
<path d="M501.594 419.847L526.626 399.718L559.061 439.948L534.029 460.077L501.594 419.847Z" fill="#505F98"/>
<path d="M501.594 419.847L526.626 399.718L559.061 439.948L534.029 460.077L501.594 419.847Z" fill="url(#paint27_linear_108_1327)"/>
<path d="M527.714 399.389L552.782 379.169L585.364 419.456L560.297 439.676L527.714 399.389Z" fill="#505F98"/>
<path d="M552.794 378.99L577.862 358.77L610.444 399.057L585.377 419.277L552.794 378.99Z" fill="#505F98"/>
<path d="M576.402 360.051L601.434 339.923L633.869 380.153L608.837 400.281L576.402 360.051Z" fill="#505F98"/>
<path d="M606.42 403.218L585.321 420L553.383 379.782L574.482 363L606.42 403.218Z" fill="url(#paint28_linear_108_1327)"/>
<path d="M573.445 362.648L598.477 342.519L630.912 382.749L605.879 402.878L573.445 362.648Z" fill="url(#paint29_linear_108_1327)"/>
<path d="M522.362 484.15V607H501.347V484.15C501.347 479.61 504.166 475.57 508.366 474.089V461.825C508.366 459.712 510.041 458 512.109 458C514.176 458 515.852 459.712 515.852 461.825V474.297C519.771 475.935 522.34 479.823 522.362 484.15Z" fill="#505F98"/>
<path d="M522.362 484.15V607H501.347V484.15C501.347 479.61 504.166 475.57 508.366 474.089V461.825C508.366 459.712 510.041 458 512.109 458C514.176 458 515.852 459.712 515.852 461.825V474.297C519.771 475.935 522.34 479.823 522.362 484.15Z" fill="url(#paint30_linear_108_1327)"/>
<rect x="488.338" y="562" width="50.0346" height="9" rx="2.245" fill="#505F98"/>
<path d="M513.044 644C504.471 644 497.344 631.185 497.344 622.634V566H528.366V622.634C528.366 631.185 521.596 644 513.044 644Z" fill="#505F98"/>
<rect x="488.338" y="562" width="50.0346" height="9" rx="2.245" fill="url(#paint31_linear_108_1327)"/>
<path d="M513.044 644C504.471 644 497.344 631.366 497.344 622.937V571H528.366V622.937C528.366 631.366 521.596 644 513.044 644Z" fill="url(#paint32_linear_108_1327)"/>
<path d="M713.136 704C712.463 700.436 712.037 695.39 713.331 695.043C716.059 694.275 713.136 704 713.136 704Z" fill="#28353D"/>
<path d="M856.395 899.507C855.909 912.102 846.147 958.388 845.83 971.004C845.83 975.202 846.95 981.647 845.597 985.698C842.808 994.284 832.919 993.108 831.63 988.049L831.144 985.53C826.559 961.012 833.933 933.198 831.144 901.186C829.475 881.643 821.699 843.963 816.606 843.711C813.923 843.711 752.665 972.851 747.34 980.807C744.72 984.817 737.345 984.187 733.774 987.42C730.203 990.652 763.526 889.515 777.493 836.07C780.751 825.039 782.875 813.709 783.833 802.252C784.213 795.64 782.079 793.415 788.185 791.463C792.412 790.119 798.265 790.497 802.787 790.182C807.71 789.804 853.5 789.72 853.5 792.953C853.057 810.502 857.578 870.412 856.395 899.507Z" fill="#606161"/>
<path d="M856.395 899.507C855.909 912.102 846.147 958.388 845.83 971.004C845.83 975.202 846.95 981.647 845.597 985.698C842.808 994.284 832.919 993.108 831.63 988.049L831.144 985.53C826.559 961.012 833.933 933.198 831.144 901.186C829.475 881.643 821.699 843.963 816.606 843.711C813.923 843.711 752.665 972.851 747.34 980.807C744.72 984.817 737.345 984.187 733.774 987.42C730.203 990.652 763.526 889.515 777.493 836.07C780.751 825.039 782.875 813.709 783.833 802.252C784.213 795.64 782.079 793.415 788.185 791.463C792.412 790.119 798.265 790.497 802.787 790.182C807.71 789.804 853.5 789.72 853.5 792.953C853.057 810.502 857.578 870.412 856.395 899.507Z" fill="url(#paint33_linear_108_1327)"/>
<path d="M802.322 631.148C801.937 627.163 800.054 625 798.215 625C796.375 625 795.241 627.12 795.626 631.148C795.713 634.122 797.957 636.597 800.932 637C802.793 637 802.729 635.134 802.322 631.148Z" fill="#FFCD9C"/>
<path d="M834.716 631.159C834.966 627.166 836.803 625 838.702 625C840.601 625 841.832 627.124 841.54 631.159C841.514 634.173 839.268 636.687 836.323 637C834.445 637 834.424 635.152 834.716 631.159Z" fill="#FFCD9C"/>
<path d="M838.44 648.672C838.181 650.777 829.266 660 819.121 660C808.976 660 800.6 651.577 798.83 648.208C797.06 644.839 804.184 601.505 808.306 597.884C812.429 594.262 829.137 596.641 830.54 598.558C833.907 603.085 839.541 640.27 838.44 648.672Z" fill="#F4AD7D"/>
<path d="M834.246 615.977C832.867 616.639 827.452 602.842 826.316 600.525C825.18 598.208 825.362 595.829 826.742 595.167C828.121 594.505 830.149 595.871 831.285 598.167C832.421 600.463 835.605 615.336 834.246 615.977Z" fill="#FFCD9C"/>
<path d="M803.876 614.987C802.446 614.501 806.233 600.179 807.059 597.703C807.885 595.228 809.739 593.599 811.089 594.086C812.439 594.573 813.003 596.984 812.177 599.481C811.351 601.977 805.226 615.474 803.876 614.987Z" fill="#FFCD9C"/>
<path d="M809.553 647H831.317L834.578 667.622C822.722 674.005 815.81 673.301 806.559 666.214L809.553 647Z" fill="#F4AD7D"/>
<path d="M818.567 651.13C818.567 650.75 819.472 650.43 820.568 650.43C821.664 650.43 822.57 650.75 822.57 651.13C822.57 651.51 821.688 651.57 820.568 651.57C819.448 651.57 818.567 651.53 818.567 651.13Z" fill="#F4AD7D"/>
<path d="M839.6 641.808C840.424 636.894 841.768 601.708 838.473 597.051C835.177 592.394 815.449 589.381 812.457 590.108C805.758 591.731 806.929 596.517 806.929 596.517C804.938 596.547 802.989 597.084 801.271 598.076C798.973 599.615 794.138 621.79 797.997 638.56C799.732 646.102 806.561 652.66 818.354 652.981C832.879 653.365 838.603 647.896 839.6 641.808Z" fill="#606161"/>
<path d="M812.539 591.762C814.098 590.448 816.118 589.828 818.138 590.041C824.271 590.008 830.355 591.14 836.073 593.376C839.243 594.488 842.122 596.311 844.493 598.708C846.88 601.173 847.979 604.627 847.461 608.034C846.408 613.047 841.146 616.148 839.42 620.97C838.031 624.837 839.02 628.575 839.062 632.463C839.09 635.606 838.865 638.746 838.388 641.852C837.42 647.906 831.884 653.344 817.675 652.983C806.224 652.664 799.593 646.143 797.909 638.644C795.629 626.198 796.227 613.389 799.656 601.215C805.828 602.648 812.142 603.361 818.475 603.339C825.19 603.395 831.886 602.611 838.409 601.002C839.525 607.503 839.504 620.524 839.146 630.253" fill="#606161"/>
<path d="M777.41 663.954C773.976 664.241 770.668 665.384 767.785 667.28C762.847 671.171 762.472 678.43 762.556 684.748C762.387 693.501 762.993 702.252 764.368 710.897C765.848 718.826 768.535 726.441 770.743 734.202C774.224 746.831 776.052 759.862 776.181 772.966C776.181 780.162 776.056 788.07 780.535 793.697C785.431 799.806 794.098 800.998 801.89 801.438C812.953 802.086 824.057 802.17 835.12 801.709C842.537 801.375 850.433 800.643 856.308 796.082C860.996 792.442 871.975 669.288 863.454 666.171C854.933 663.054 845.766 662.259 836.724 661.506C816.453 659.791 797.369 658.431 777.41 663.954Z" fill="#505F98"/>
<path d="M841.23 919.291C840.143 933.255 837.551 984 837.551 984L830.946 983.77C826.41 959.39 833.705 931.732 830.946 899.899C829.295 880.465 821.603 842.996 816.565 842.746C818.07 830.221 826.536 832.1 826.536 832.1C832.692 841.294 838.002 851.026 842.4 861.178C847.438 874.37 842.337 905.263 841.23 919.291Z" fill="url(#paint34_linear_108_1327)"/>
<path d="M716.873 985.024C715.841 985.786 715.058 986.83 714.621 988.025C714.386 989.009 714.481 990.04 714.892 990.965C716.058 993.326 718.269 995.019 720.876 995.55C723.453 996.04 726.091 996.131 728.696 995.818L737.036 995.262C739.158 995.212 741.264 994.873 743.292 994.255C745.322 993.627 746.998 992.198 747.921 990.308C748.412 988.916 748.604 987.438 748.484 985.969C748.484 979.164 746.065 973.634 738.517 975.299C730.61 976.765 723.183 980.102 716.873 985.024Z" fill="#505F98"/>
<path d="M855.411 988.063C856.359 988.759 857.077 989.709 857.478 990.797C857.692 991.682 857.608 992.611 857.239 993.446C856.176 995.584 854.146 997.114 851.755 997.579C849.398 998.035 846.981 998.121 844.596 997.834L837.024 997.325C835.098 997.284 833.187 996.985 831.345 996.435C829.488 995.864 827.958 994.566 827.123 992.853C826.675 991.595 826.498 990.26 826.601 988.932C826.601 982.785 828.777 977.72 835.718 979.288C842.915 980.619 849.672 983.63 855.411 988.063Z" fill="#505F98"/>
<path d="M864.599 666C864.599 666 897.314 685.163 907.14 709.389C916.965 733.614 874.961 792 874.961 792L865.972 782.814C865.972 782.814 887.897 738.759 884.507 727.74C881.117 716.721 867.838 706.452 867.838 706.452L864.599 666Z" fill="#505F98"/>
<path d="M771.534 703.859C771.534 703.859 726.046 724.24 707.561 714.238C689.076 704.237 708.106 654 708.106 654L720.486 658.202C720.486 658.202 710.142 683.815 721.975 687.618C733.809 691.421 769.268 666.438 769.268 666.438L771.534 703.859Z" fill="#505F98"/>
<path d="M857.175 790.976C855.866 791.826 854.806 792.968 854.09 794.297C853.66 795.425 853.505 796.629 853.637 797.819C853.557 800.709 854.872 803.479 857.218 805.367C858.866 806.25 860.713 806.76 862.611 806.857C863.774 807.048 864.964 807.048 866.128 806.857C867.314 806.646 868.305 805.888 868.759 804.844C868.914 804.183 868.98 803.507 868.954 802.831C869.105 799.51 871.607 796.793 873.678 794.076C874.178 793.551 874.501 792.9 874.606 792.204C874.594 791.434 874.305 790.69 873.786 790.091C872.384 788.199 868.91 784.717 866.128 785.018C863.345 785.32 859.332 789.326 857.175 790.976Z" fill="#F4AD7D"/>
<path d="M728.294 646.435C728.886 645.611 729.29 644.679 729.48 643.698C729.631 642.683 729.094 641.687 728.14 641.211C726.624 640.647 724.822 642.13 723.328 641.504C722.822 641.235 722.399 640.846 722.098 640.375C720.333 637.945 719.321 635.093 719.175 632.143C719.261 630.571 719.113 628.995 718.736 627.463C718.292 625.886 716.708 624.849 715.001 625.018C713.595 625.331 712.804 626.689 711.925 627.776C711.046 628.863 709.288 630.158 708.146 631.516C706.195 634.307 705.079 637.55 704.916 640.898C704.301 645.077 703.905 649.861 706.981 652.87C709.354 655.189 716.583 657.927 719.9 656.694C723.57 655.315 726.448 649.444 728.294 646.435Z" fill="#F4AD7D"/>
<defs>
<linearGradient id="paint0_linear_108_1327" x1="528.11" y1="560.166" x2="592.864" y2="431.6" gradientUnits="userSpaceOnUse">
<stop stop-color="#010101" stop-opacity="0.01"/>
<stop offset="0.95" stop-color="#010101"/>
</linearGradient>
<linearGradient id="paint1_linear_108_1327" x1="583.271" y1="556.365" x2="676.125" y2="374.775" gradientUnits="userSpaceOnUse">
<stop stop-color="#010101" stop-opacity="0.01"/>
<stop offset="0.95" stop-color="#010101"/>
</linearGradient>
<linearGradient id="paint2_linear_108_1327" x1="703.253" y1="565.092" x2="840.607" y2="254.948" gradientUnits="userSpaceOnUse">
<stop stop-color="#010101" stop-opacity="0.01"/>
<stop offset="0.95" stop-color="#010101"/>
</linearGradient>
<linearGradient id="paint3_linear_108_1327" x1="831.087" y1="581.583" x2="1036.02" y2="134.179" gradientUnits="userSpaceOnUse">
<stop stop-color="#010101" stop-opacity="0.01"/>
<stop offset="0.36" stop-color="#010101" stop-opacity="0.36"/>
<stop offset="0.95" stop-color="#010101"/>
</linearGradient>
<linearGradient id="paint4_linear_108_1327" x1="682.434" y1="476.564" x2="799.594" y2="234.969" gradientUnits="userSpaceOnUse">
<stop stop-color="white" stop-opacity="0.01"/>
<stop offset="0.07" stop-color="white" stop-opacity="0.22"/>
<stop offset="0.16" stop-color="white" stop-opacity="0.45"/>
<stop offset="0.25" stop-color="white" stop-opacity="0.65"/>
<stop offset="0.33" stop-color="white" stop-opacity="0.8"/>
<stop offset="0.4" stop-color="white" stop-opacity="0.91"/>
<stop offset="0.46" stop-color="white" stop-opacity="0.98"/>
<stop offset="0.51" stop-color="white"/>
</linearGradient>
<linearGradient id="paint5_linear_108_1327" x1="604.358" y1="423.444" x2="668.555" y2="287.555" gradientUnits="userSpaceOnUse">
<stop stop-color="white" stop-opacity="0.01"/>
<stop offset="0.07" stop-color="white" stop-opacity="0.22"/>
<stop offset="0.16" stop-color="white" stop-opacity="0.45"/>
<stop offset="0.25" stop-color="white" stop-opacity="0.65"/>
<stop offset="0.33" stop-color="white" stop-opacity="0.8"/>
<stop offset="0.4" stop-color="white" stop-opacity="0.91"/>
<stop offset="0.46" stop-color="white" stop-opacity="0.98"/>
<stop offset="0.51" stop-color="white"/>
</linearGradient>
<linearGradient id="paint6_linear_108_1327" x1="909.68" y1="886.322" x2="920.101" y2="759.584" gradientUnits="userSpaceOnUse">
<stop stop-color="#010101" stop-opacity="0.01"/>
<stop offset="0.95" stop-color="#010101"/>
</linearGradient>
<linearGradient id="paint7_linear_108_1327" x1="507.967" y1="423.517" x2="505.252" y2="873.071" gradientUnits="userSpaceOnUse">
<stop stop-color="white" stop-opacity="0.01"/>
<stop offset="0.07" stop-color="white" stop-opacity="0.22"/>
<stop offset="0.16" stop-color="white" stop-opacity="0.45"/>
<stop offset="0.25" stop-color="white" stop-opacity="0.65"/>
<stop offset="0.33" stop-color="white" stop-opacity="0.8"/>
<stop offset="0.4" stop-color="white" stop-opacity="0.91"/>
<stop offset="0.46" stop-color="white" stop-opacity="0.98"/>
<stop offset="0.51" stop-color="white"/>
</linearGradient>
<linearGradient id="paint8_linear_108_1327" x1="254.313" y1="861.073" x2="254.413" y2="1003.31" gradientUnits="userSpaceOnUse">
<stop stop-color="#010101" stop-opacity="0.01"/>
<stop offset="0.95" stop-color="#010101"/>
</linearGradient>
<linearGradient id="paint9_linear_108_1327" x1="1406.73" y1="606.966" x2="1440.91" y2="199.855" gradientUnits="userSpaceOnUse">
<stop stop-color="white" stop-opacity="0.01"/>
<stop offset="0.07" stop-color="white" stop-opacity="0.22"/>
<stop offset="0.16" stop-color="white" stop-opacity="0.45"/>
<stop offset="0.25" stop-color="white" stop-opacity="0.65"/>
<stop offset="0.33" stop-color="white" stop-opacity="0.8"/>
<stop offset="0.4" stop-color="white" stop-opacity="0.91"/>
<stop offset="0.46" stop-color="white" stop-opacity="0.98"/>
<stop offset="0.51" stop-color="white"/>
</linearGradient>
<linearGradient id="paint10_linear_108_1327" x1="579.846" y1="496.87" x2="717.853" y2="865.142" gradientUnits="userSpaceOnUse">
<stop stop-color="white" stop-opacity="0.01"/>
<stop offset="0.07" stop-color="white" stop-opacity="0.22"/>
<stop offset="0.16" stop-color="white" stop-opacity="0.45"/>
<stop offset="0.25" stop-color="white" stop-opacity="0.65"/>
<stop offset="0.33" stop-color="white" stop-opacity="0.8"/>
<stop offset="0.4" stop-color="white" stop-opacity="0.91"/>
<stop offset="0.46" stop-color="white" stop-opacity="0.98"/>
<stop offset="0.51" stop-color="white"/>
</linearGradient>
<linearGradient id="paint11_linear_108_1327" x1="683.377" y1="519.99" x2="680.051" y2="802.698" gradientUnits="userSpaceOnUse">
<stop stop-color="white" stop-opacity="0.01"/>
<stop offset="0.07" stop-color="white" stop-opacity="0.22"/>
<stop offset="0.16" stop-color="white" stop-opacity="0.45"/>
<stop offset="0.25" stop-color="white" stop-opacity="0.65"/>
<stop offset="0.33" stop-color="white" stop-opacity="0.8"/>
<stop offset="0.4" stop-color="white" stop-opacity="0.91"/>
<stop offset="0.46" stop-color="white" stop-opacity="0.98"/>
<stop offset="0.51" stop-color="white"/>
</linearGradient>
<linearGradient id="paint12_linear_108_1327" x1="999.211" y1="711.704" x2="1018.4" y2="133.785" gradientUnits="userSpaceOnUse">
<stop stop-color="#010101" stop-opacity="0.01"/>
<stop offset="0.95" stop-color="#010101"/>
</linearGradient>
<linearGradient id="paint13_linear_108_1327" x1="998.359" y1="712.045" x2="1017.55" y2="134.125" gradientUnits="userSpaceOnUse">
<stop stop-color="#010101" stop-opacity="0.01"/>
<stop offset="0.95" stop-color="#010101"/>
</linearGradient>
<linearGradient id="paint14_linear_108_1327" x1="904.18" y1="709.354" x2="923.396" y2="131.435" gradientUnits="userSpaceOnUse">
<stop stop-color="#010101" stop-opacity="0.01"/>
<stop offset="0.95" stop-color="#010101"/>
</linearGradient>
<linearGradient id="paint15_linear_108_1327" x1="903.328" y1="709.694" x2="922.544" y2="131.776" gradientUnits="userSpaceOnUse">
<stop stop-color="#010101" stop-opacity="0.01"/>
<stop offset="0.95" stop-color="#010101"/>
</linearGradient>
<linearGradient id="paint16_linear_108_1327" x1="997.421" y1="713.545" x2="1016.64" y2="135.627" gradientUnits="userSpaceOnUse">
<stop stop-color="#010101" stop-opacity="0.01"/>
<stop offset="0.95" stop-color="#010101"/>
</linearGradient>
<linearGradient id="paint17_linear_108_1327" x1="903.39" y1="711.236" x2="922.578" y2="133.317" gradientUnits="userSpaceOnUse">
<stop stop-color="#010101" stop-opacity="0.01"/>
<stop offset="0.95" stop-color="#010101"/>
</linearGradient>
<linearGradient id="paint18_linear_108_1327" x1="951.38" y1="712.396" x2="970.597" y2="134.499" gradientUnits="userSpaceOnUse">
<stop stop-color="#010101" stop-opacity="0.01"/>
<stop offset="0.95" stop-color="#010101"/>
</linearGradient>
<linearGradient id="paint19_linear_108_1327" x1="953.196" y1="709.843" x2="972.413" y2="131.925" gradientUnits="userSpaceOnUse">
<stop stop-color="#010101" stop-opacity="0.01"/>
<stop offset="0.95" stop-color="#010101"/>
</linearGradient>
<linearGradient id="paint20_linear_108_1327" x1="608.119" y1="724.399" x2="840.351" y2="941.094" gradientUnits="userSpaceOnUse">
<stop stop-color="white" stop-opacity="0.01"/>
<stop offset="0.07" stop-color="white" stop-opacity="0.22"/>
<stop offset="0.16" stop-color="white" stop-opacity="0.45"/>
<stop offset="0.25" stop-color="white" stop-opacity="0.65"/>
<stop offset="0.33" stop-color="white" stop-opacity="0.8"/>
<stop offset="0.4" stop-color="white" stop-opacity="0.91"/>
<stop offset="0.46" stop-color="white" stop-opacity="0.98"/>
<stop offset="0.51" stop-color="white"/>
</linearGradient>
<linearGradient id="paint21_linear_108_1327" x1="956.986" y1="504.864" x2="955.2" y2="640.026" gradientUnits="userSpaceOnUse">
<stop stop-color="white" stop-opacity="0.01"/>
<stop offset="0.07" stop-color="white" stop-opacity="0.22"/>
<stop offset="0.16" stop-color="white" stop-opacity="0.45"/>
<stop offset="0.25" stop-color="white" stop-opacity="0.65"/>
<stop offset="0.33" stop-color="white" stop-opacity="0.8"/>
<stop offset="0.4" stop-color="white" stop-opacity="0.91"/>
<stop offset="0.46" stop-color="white" stop-opacity="0.98"/>
<stop offset="0.51" stop-color="white"/>
</linearGradient>
<linearGradient id="paint22_linear_108_1327" x1="956.986" y1="614.864" x2="955.2" y2="750.026" gradientUnits="userSpaceOnUse">
<stop stop-color="white" stop-opacity="0.01"/>
<stop offset="0.07" stop-color="white" stop-opacity="0.22"/>
<stop offset="0.16" stop-color="white" stop-opacity="0.45"/>
<stop offset="0.25" stop-color="white" stop-opacity="0.65"/>
<stop offset="0.33" stop-color="white" stop-opacity="0.8"/>
<stop offset="0.4" stop-color="white" stop-opacity="0.91"/>
<stop offset="0.46" stop-color="white" stop-opacity="0.98"/>
<stop offset="0.51" stop-color="white"/>
</linearGradient>
<linearGradient id="paint23_linear_108_1327" x1="593.145" y1="540.281" x2="593.128" y2="558.481" gradientUnits="userSpaceOnUse">
<stop stop-color="white" stop-opacity="0.01"/>
<stop offset="0.07" stop-color="white" stop-opacity="0.22"/>
<stop offset="0.16" stop-color="white" stop-opacity="0.45"/>
<stop offset="0.25" stop-color="white" stop-opacity="0.65"/>
<stop offset="0.33" stop-color="white" stop-opacity="0.8"/>
<stop offset="0.4" stop-color="white" stop-opacity="0.91"/>
<stop offset="0.46" stop-color="white" stop-opacity="0.98"/>
<stop offset="0.51" stop-color="white"/>
</linearGradient>
<linearGradient id="paint24_linear_108_1327" x1="512.445" y1="593.052" x2="625.876" y2="503.635" gradientUnits="userSpaceOnUse">
<stop stop-color="#010101" stop-opacity="0.01"/>
<stop offset="0.95" stop-color="#010101"/>
</linearGradient>
<linearGradient id="paint25_linear_108_1327" x1="562.284" y1="612.988" x2="723.56" y2="487.867" gradientUnits="userSpaceOnUse">
<stop stop-color="#010101" stop-opacity="0.01"/>
<stop offset="0.95" stop-color="#010101"/>
</linearGradient>
<linearGradient id="paint26_linear_108_1327" x1="667.228" y1="671.751" x2="923.392" y2="449.028" gradientUnits="userSpaceOnUse">
<stop stop-color="#010101" stop-opacity="0.01"/>
<stop offset="0.95" stop-color="#010101"/>
</linearGradient>
<linearGradient id="paint27_linear_108_1327" x1="775.987" y1="740.865" x2="1151.67" y2="422.45" gradientUnits="userSpaceOnUse">
<stop stop-color="#010101" stop-opacity="0.01"/>
<stop offset="0.36" stop-color="#010101" stop-opacity="0.36"/>
<stop offset="0.95" stop-color="#010101"/>
</linearGradient>
<linearGradient id="paint28_linear_108_1327" x1="624.246" y1="503.751" x2="807.185" y2="372.322" gradientUnits="userSpaceOnUse">
<stop stop-color="white" stop-opacity="0.01"/>
<stop offset="0.07" stop-color="white" stop-opacity="0.22"/>
<stop offset="0.16" stop-color="white" stop-opacity="0.45"/>
<stop offset="0.25" stop-color="white" stop-opacity="0.65"/>
<stop offset="0.33" stop-color="white" stop-opacity="0.8"/>
<stop offset="0.4" stop-color="white" stop-opacity="0.91"/>
<stop offset="0.46" stop-color="white" stop-opacity="0.98"/>
<stop offset="0.51" stop-color="white"/>
</linearGradient>
<linearGradient id="paint29_linear_108_1327" x1="637.859" y1="501.517" x2="753.717" y2="405.658" gradientUnits="userSpaceOnUse">
<stop stop-color="white" stop-opacity="0.01"/>
<stop offset="0.07" stop-color="white" stop-opacity="0.22"/>
<stop offset="0.16" stop-color="white" stop-opacity="0.45"/>
<stop offset="0.25" stop-color="white" stop-opacity="0.65"/>
<stop offset="0.33" stop-color="white" stop-opacity="0.8"/>
<stop offset="0.4" stop-color="white" stop-opacity="0.91"/>
<stop offset="0.46" stop-color="white" stop-opacity="0.98"/>
<stop offset="0.51" stop-color="white"/>
</linearGradient>
<linearGradient id="paint30_linear_108_1327" x1="503.446" y1="667.745" x2="541.631" y2="667.767" gradientUnits="userSpaceOnUse">
<stop stop-color="white" stop-opacity="0.01"/>
<stop offset="0.07" stop-color="white" stop-opacity="0.22"/>
<stop offset="0.16" stop-color="white" stop-opacity="0.45"/>
<stop offset="0.25" stop-color="white" stop-opacity="0.65"/>
<stop offset="0.33" stop-color="white" stop-opacity="0.8"/>
<stop offset="0.4" stop-color="white" stop-opacity="0.91"/>
<stop offset="0.46" stop-color="white" stop-opacity="0.98"/>
<stop offset="0.51" stop-color="white"/>
</linearGradient>
<linearGradient id="paint31_linear_108_1327" x1="430.154" y1="570.2" x2="441.805" y2="608.932" gradientUnits="userSpaceOnUse">
<stop stop-color="#010101" stop-opacity="0.01"/>
<stop offset="0.95" stop-color="#010101"/>
</linearGradient>
<linearGradient id="paint32_linear_108_1327" x1="454.952" y1="718.933" x2="555.855" y2="720.976" gradientUnits="userSpaceOnUse">
<stop stop-color="#010101" stop-opacity="0.01"/>
<stop offset="0.95" stop-color="#010101"/>
</linearGradient>
<linearGradient id="paint33_linear_108_1327" x1="857.723" y1="876.512" x2="761.63" y2="711.732" gradientUnits="userSpaceOnUse">
<stop stop-color="#010101" stop-opacity="0.01"/>
<stop offset="0.95" stop-color="#010101"/>
</linearGradient>
<linearGradient id="paint34_linear_108_1327" x1="858.746" y1="414.892" x2="685.86" y2="419.761" gradientUnits="userSpaceOnUse">
<stop stop-color="#010101" stop-opacity="0.01"/>
<stop offset="0.95" stop-color="#010101"/>
</linearGradient>
</defs>
</svg>
